<svg xmlns="http://www.w3.org/2000/svg" width="161.337" height="72.189" viewBox="0 0 161.337 72.189"><defs><style>.a{fill:#fff;}.b{opacity:0.4;}</style></defs><g transform="translate(0.63)"><path class="a" d="M405.311,669.431H388.1v-3.31l12.331-14.661h-12.19v-3.311h16.832v3.311l-12.331,14.661h12.565Z" transform="translate(-388.104 -647.203)"/><path class="a" d="M489.555,666.876H485.8v-3.453a9.9,9.9,0,0,1-8.252,4.4,11.594,11.594,0,0,1,0-23.174,9.9,9.9,0,0,1,8.252,4.4v-3.453h3.751Zm-11.628-18.917a8.287,8.287,0,1,0,7.877,8.276A8.059,8.059,0,0,0,477.927,647.959Z" transform="translate(-445.389 -644.648)"/><path class="a" d="M593,667.822a9.9,9.9,0,0,1-8.252-4.4v16.222H581V645.594h3.751v3.453a9.9,9.9,0,0,1,8.252-4.4,11.594,11.594,0,0,1,0,23.174Zm-.375-19.863a8.289,8.289,0,1,0,7.83,8.276A8.1,8.1,0,0,0,592.627,647.959Z" transform="translate(-529.332 -644.648)"/><path class="a" d="M702.4,667.822a9.9,9.9,0,0,1-8.252-4.4v16.222H690.4V645.594h3.751v3.453a9.9,9.9,0,0,1,8.252-4.4,11.594,11.594,0,0,1,0,23.174Zm-.375-19.863a8.289,8.289,0,1,0,7.83,8.276A8.1,8.1,0,0,0,702.029,647.959Z" transform="translate(-609.43 -644.648)"/></g><g class="b" transform="translate(0 40.308)"><path class="a" d="M404.409,793.838l-4.94,23.214h-2.455l.43-1.919a7.541,7.541,0,0,1-5.554,2.507,5.981,5.981,0,0,1-6.137-6.376,8.925,8.925,0,0,1,8.745-8.729,5.8,5.8,0,0,1,5.063,2.6l2.394-11.3Zm-9.85,10.833a6.728,6.728,0,0,0-6.321,6.5,4.07,4.07,0,0,0,4.05,4.333c3.345,0,6.321-3.312,6.321-6.593A3.975,3.975,0,0,0,394.559,804.671Z" transform="translate(-385.752 -793.838)"/><path class="a" d="M469.865,834.582H457.314v.062a4.018,4.018,0,0,0,4.051,4.272,6.78,6.78,0,0,0,5.094-2.786l1.933,1.3a9.256,9.256,0,0,1-7.181,3.653,6.34,6.34,0,0,1-6.383-6.407,9.1,9.1,0,0,1,8.991-8.76,6.341,6.341,0,0,1,6.352,6.438A8.881,8.881,0,0,1,469.865,834.582Zm-6.229-6.5a6.707,6.707,0,0,0-5.892,4.365h10.065v-.093A4.116,4.116,0,0,0,463.636,828.082Z" transform="translate(-436.327 -817.248)"/><path class="a" d="M550.789,828.206l-.46,2.167-10.1,9.6h8.224l-.46,2.167H536.735l.46-2.167,10.1-9.6h-7.979l.461-2.167Z" transform="translate(-496.294 -818.921)"/><path class="a" d="M598.45,841.082a6.34,6.34,0,0,1-6.383-6.407,9.1,9.1,0,0,1,8.991-8.76,6.341,6.341,0,0,1,6.352,6.438A9.115,9.115,0,0,1,598.45,841.082Zm2.424-13c-3.314,0-6.321,3.25-6.321,6.562a4.018,4.018,0,0,0,4.05,4.272c3.345,0,6.321-3.25,6.321-6.562A4.018,4.018,0,0,0,600.873,828.082Z" transform="translate(-536.805 -817.248)"/><path class="a" d="M665.833,828.237a4.372,4.372,0,0,0-1.135-.155,5.151,5.151,0,0,0-4.818,3.962l-1.78,8.419h-2.455l2.946-13.929h2.455l-.337,1.579a4.719,4.719,0,0,1,4.3-2.2,8.991,8.991,0,0,1,1.289.093Z" transform="translate(-583.354 -817.248)"/><path class="a" d="M708.734,826.617l-3.283,15.569a9,9,0,0,1-8.807,7.026,6.258,6.258,0,0,1-5.83-3.869l2.178-1.145a3.884,3.884,0,0,0,3.836,2.848,6.5,6.5,0,0,0,6.2-5.107l.706-3.343a7.414,7.414,0,0,1-5.554,2.538,5.981,5.981,0,0,1-6.137-6.376,8.925,8.925,0,0,1,8.745-8.729,5.764,5.764,0,0,1,5.063,2.6l.43-2.012Zm-7.886,1.548a6.727,6.727,0,0,0-6.321,6.5,4.07,4.07,0,0,0,4.05,4.333c3.345,0,6.321-3.312,6.321-6.593A3.976,3.976,0,0,0,700.848,828.165Z" transform="translate(-609.103 -817.332)"/><path class="a" d="M804.764,826.617l-2.977,13.929h-2.455l.43-1.919a7.541,7.541,0,0,1-5.554,2.507,5.981,5.981,0,0,1-6.137-6.376,8.925,8.925,0,0,1,8.746-8.729,5.764,5.764,0,0,1,5.063,2.6l.43-2.012Zm-7.886,1.548a6.728,6.728,0,0,0-6.321,6.5,4.07,4.07,0,0,0,4.05,4.333c3.345,0,6.321-3.312,6.321-6.593A3.975,3.975,0,0,0,796.878,828.165Z" transform="translate(-680.309 -817.332)"/><path class="a" d="M858.94,841.134a5.731,5.731,0,0,1-5.063-2.6L851.7,848.9h-2.455l4.726-22.286h2.455l-.43,1.95a7.463,7.463,0,0,1,5.554-2.538c3.191,0,6.137,2.167,6.137,6.407A8.919,8.919,0,0,1,858.94,841.134Zm2.209-12.969c-3.314,0-6.321,3.312-6.321,6.624a3.967,3.967,0,0,0,4.05,4.209,6.7,6.7,0,0,0,6.321-6.5A4.071,4.071,0,0,0,861.149,828.165Z" transform="translate(-725.096 -817.332)"/><path class="a" d="M928.933,841.134a5.731,5.731,0,0,1-5.063-2.6L921.691,848.9h-2.455l4.726-22.286h2.455l-.429,1.95a7.462,7.462,0,0,1,5.554-2.538c3.191,0,6.137,2.167,6.137,6.407A8.919,8.919,0,0,1,928.933,841.134Zm2.209-12.969c-3.314,0-6.321,3.312-6.321,6.624a3.967,3.967,0,0,0,4.05,4.209,6.7,6.7,0,0,0,6.321-6.5A4.07,4.07,0,0,0,931.142,828.165Z" transform="translate(-776.341 -817.332)"/></g></svg>