<svg xmlns="http://www.w3.org/2000/svg" width="83.021" height="74.685" viewBox="0 0 83.021 74.685"><defs><style>.a,.b{fill:#fff;}.a{stroke:#fff;stroke-miterlimit:10;opacity:0.4;}</style></defs><path class="a" d="M263.646,430.382l-9.276-23.263-3.318,9.991h-18.87c5.057,7.879,13.828,15.4,24.9,24.87,3.167,2.708,6.535,5.587,10.074,8.694l1.6,1.406,1.6-1.406c3.539-3.108,6.907-5.987,10.073-8.694,11.073-9.466,19.844-16.991,24.9-24.87H270.261Z" transform="translate(-227.247 -378.061)"/><path class="b" d="M273.051,288.163c-9.962.036-16.3,6.85-19.63,13.1-3.309-6.213-9.624-13.1-19.463-13.1h-.166c-11.575.093-21.263,10-21.852,22.556a25.861,25.861,0,0,0,2.134,11.612H232.21l6.41-19.3L248.8,328.579l3.114-6.248h40.85a25.841,25.841,0,0,0,2.134-11.612C294.313,298.163,284.626,288.256,273.051,288.163Z" transform="translate(-211.911 -288.163)"/></svg>